 <svg  version="1.0" xmlns="http://www.w3.org/2000/svg"  width="900.000000pt" height="900.000000pt" viewBox="0 0 900.000000 900.000000"  preserveAspectRatio="xMidYMid meet">  <g transform="translate(0.000000,900.000000) scale(0.100000,-0.100000)" fill="#284168" stroke="none"> <path d="M0 4500 l0 -4500 4500 0 4500 0 0 4500 0 4500 -4500 0 -4500 0 0 -4500z m5388 3257 c13 -15 31 -1951 33 -3512 1 -577 4 -1194 8 -1370 l6 -320 380 0 380 0 5 1550 5 1550 579 3 c364 1 583 -1 590 -8 5 -5 11 -145 13 -337 3 -180 7 -380 11 -443 l7 -115 192 -3 192 -2 34 53 c118 184 377 209 517 49 61 -69 81 -122 83 -219 1 -71 -3 -89 -27 -137 -37 -73 -88 -123 -155 -154 -143 -66 -315 -23 -400 101 -61 88 -27 81 -356 73 -264 -7 -294 -6 -309 9 -13 14 -16 42 -17 178 -1 424 -10 712 -22 719 -7 4 -165 7 -352 5 l-340 -2 -2 -1545 c-3 -1438 -4 -1546 -20 -1557 -21 -16 -1156 -19 -1196 -4 l-24 9 -7 544 c-4 299 -11 1462 -16 2586 -6 1596 -11 2046 -20 2057 -11 13 -67 15 -399 13 l-386 -3 0 -944 0 -944 57 -41 c65 -47 90 -76 118 -139 70 -158 5 -335 -154 -420 -56 -30 -232 -32 -286 -3 -116 62 -190 178 -190 296 0 101 78 227 175 284 l44 26 1 1057 c0 828 3 1059 13 1065 6 4 285 8 618 8 481 0 609 -3 617 -13z m-2536 -904 c35 -34 108 -144 108 -162 0 -5 12 -35 26 -67 69 -155 182 -593 269 -1044 9 -47 20 -105 25 -130 5 -25 14 -75 20 -112 6 -37 12 -73 15 -80 3 -7 9 -40 14 -73 6 -33 17 -98 26 -145 23 -118 43 -241 55 -332 6 -42 16 -93 24 -115 l13 -38 444 -2 c439 -3 444 -3 462 -24 16 -20 17 -120 17 -1791 0 -1200 -3 -1776 -10 -1789 -28 -51 -132 7 -191 108 -19 32 -50 94 -68 138 -18 44 -39 95 -47 113 -8 18 -14 39 -14 47 0 8 -6 29 -14 47 -8 18 -22 60 -32 93 -9 33 -22 78 -29 100 -27 85 -105 417 -145 620 -54 271 -107 558 -134 730 -9 55 -21 120 -26 145 -6 25 -14 74 -20 110 -13 90 -37 230 -44 260 -4 14 -11 54 -16 90 -10 76 -33 217 -56 350 -9 52 -19 122 -23 155 -4 33 -13 89 -20 125 -27 146 -33 178 -41 240 -5 36 -12 73 -16 83 -6 16 -53 17 -724 17 l-718 0 -6 -37 c-4 -21 -11 -51 -16 -68 -6 -16 -27 -93 -49 -170 -139 -495 -230 -706 -347 -801 -41 -34 -54 -39 -99 -39 -62 0 -104 28 -164 108 -42 55 -117 193 -152 280 -12 29 -34 84 -49 122 -35 87 -165 484 -180 548 -7 33 -7 54 0 67 10 19 27 20 527 22 l517 3 17 55 c10 30 25 80 32 110 33 128 40 157 48 195 4 22 15 67 23 100 20 79 43 174 61 255 8 36 21 94 30 130 9 36 20 85 25 108 6 24 14 60 20 80 5 21 24 96 41 167 146 609 276 971 391 1086 26 26 58 50 70 52 50 11 91 -2 130 -40z"/> </g> </svg> 